<?xml version="1.0" encoding="utf-8"?>
<!-- Generator: Adobe Illustrator 26.5.0, SVG Export Plug-In . SVG Version: 6.00 Build 0)  -->
<svg version="1.1" id="Слой_1" xmlns="http://www.w3.org/2000/svg" xmlns:xlink="http://www.w3.org/1999/xlink" x="0px" y="0px"
	 viewBox="0 0 800 800" style="enable-background:new 0 0 800 800;" xml:space="preserve">
<style type="text/css">
	.st0{fill:#FFFFFF;}
</style>
<path class="st0" d="M146.8,615.4l468.6-468.6c10.4-10.4,27.3-10.4,37.7,0l0,0c10.4,10.4,10.4,27.3,0,37.7L184.6,653.2
	c-10.4,10.4-27.3,10.4-37.7,0l0,0C136.4,642.7,136.4,625.8,146.8,615.4z"/>
<path class="st0" d="M615.4,653.2L146.8,184.6c-10.4-10.4-10.4-27.3,0-37.7l0,0c10.4-10.4,27.3-10.4,37.7,0l468.6,468.6
	c10.4,10.4,10.4,27.3,0,37.7l0,0C642.7,663.6,625.8,663.6,615.4,653.2z"/>
</svg>
