<?xml version="1.0" encoding="utf-8"?>
<!-- Generator: Adobe Illustrator 26.5.0, SVG Export Plug-In . SVG Version: 6.00 Build 0)  -->
<svg version="1.1" id="Слой_1" xmlns="http://www.w3.org/2000/svg" xmlns:xlink="http://www.w3.org/1999/xlink" x="0px" y="0px"
	 viewBox="0 0 800 800" style="enable-background:new 0 0 800 800;" xml:space="preserve">
<style type="text/css">
	.st0{fill:#FFFFFF;}
</style>
<path class="st0" d="M400,92.4C230.1,92.4,92.4,230.1,92.4,400S230.1,707.6,400,707.6S707.6,569.9,707.6,400S569.9,92.4,400,92.4z
	 M550.2,512c10.5,10.5,10.5,27.7,0,38.2l0,0c-10.5,10.5-27.7,10.5-38.2,0l-112-112l-112,112c-10.5,10.5-27.7,10.5-38.2,0l0,0
	c-10.5-10.5-10.5-27.7,0-38.2l112-112l-112-112c-10.5-10.5-10.5-27.7,0-38.2l0,0c10.5-10.5,27.7-10.5,38.2,0l112,112l112-112
	c10.5-10.5,27.7-10.5,38.2,0l0,0c10.5,10.5,10.5,27.7,0,38.2l-112,112L550.2,512z"/>
</svg>
