<svg width="308" height="44" viewBox="0 0 308 44" fill="none" xmlns="http://www.w3.org/2000/svg">
<path fill-rule="evenodd" clip-rule="evenodd" d="M93 41.4998C118.767 33.653 125.154 31.4498 155 42.9998C139.594 28.7489 143.388 19.1665 158.5 1C117.979 9.88855 106.354 20.0153 93 41.4998ZM137 29C131.06 28.063 127.762 28.1667 122 29C123.099 22.2549 127.296 19.4342 137 15C135.463 21.2544 134.348 24.8914 137 29Z" fill="#40C0C0"/>
<path d="M122 29C127.762 28.1667 131.06 28.063 137 29C134.348 24.8914 135.463 21.2544 137 15C127.296 19.4342 123.099 22.2549 122 29Z" fill="white"/>
<path d="M18 33.5H24.5V28.5H43.5V36.5H1V8.5H43.5V16.5H24.5V11.5H18V33.5Z" fill="#000040"/>
<path d="M174 16.5V36.5H188V16.5H202.5V8.5H158V16.5H174Z" fill="#000040"/>
<path d="M290 16.5V11.5H283.5V30.5H307V36.5H264.5V8.5H307V16.5H290Z" fill="#000040"/>
<path d="M211 32.5V36H256V9H250V27H231.5V9H210.5V27H230.5V32.5H211Z" fill="#000040"/>
<path fill-rule="evenodd" clip-rule="evenodd" d="M93 41.4998C118.767 33.653 125.154 31.4498 155 42.9998C139.594 28.7489 143.388 19.1665 158.5 1C117.979 9.88855 106.354 20.0153 93 41.4998ZM137 29C131.06 28.063 127.762 28.1667 122 29C123.099 22.2549 127.296 19.4342 137 15C135.463 21.2544 134.348 24.8914 137 29Z" stroke="#000040"/>
<path d="M122 29C127.762 28.1667 131.06 28.063 137 29C134.348 24.8914 135.463 21.2544 137 15C127.296 19.4342 123.099 22.2549 122 29Z" stroke="#000040"/>
<path d="M18 33.5H24.5V28.5H43.5V36.5H1V8.5H43.5V16.5H24.5V11.5H18V33.5Z" stroke="#000040"/>
<path d="M174 16.5V36.5H188V16.5H202.5V8.5H158V16.5H174Z" stroke="#000040"/>
<path d="M290 16.5V11.5H283.5V30.5H307V36.5H264.5V8.5H307V16.5H290Z" stroke="#000040"/>
<path d="M211 32.5V36H256V9H250V27H231.5V9H210.5V27H230.5V32.5H211Z" stroke="#000040"/>
<path d="M25.5 34V29H43.5V36H2V9H43.5V16H25.5V11H18V34H25.5Z" fill="#000040"/>
<path d="M70.5 16.5V36H81.5L81.2878 16H97.5V9H54.5V16H70.5V16.5Z" fill="#000040"/>
<path d="M175 16V36H188V16H202.5V9H159V16H175Z" fill="#000040"/>
<path d="M25.5 34V29H43.5V36H2V9H43.5V16H25.5V11H18V34H25.5Z" stroke="#000040"/>
<path d="M70.5 16.5V36H81.5L81.2878 16H97.5V9H54.5V16H70.5V16.5Z" stroke="#000040"/>
<path d="M175 16V36H188V16H202.5V9H159V16H175Z" stroke="#000040"/>
</svg>
