<?xml version="1.0" encoding="utf-8"?>
<!-- Generator: Adobe Illustrator 26.5.0, SVG Export Plug-In . SVG Version: 6.00 Build 0)  -->
<svg version="1.1" id="Слой_1" xmlns="http://www.w3.org/2000/svg" xmlns:xlink="http://www.w3.org/1999/xlink" x="0px" y="0px"
	 viewBox="0 0 30 30" style="enable-background:new 0 0 30 30;" xml:space="preserve">
<style type="text/css">
	.st0{fill:#D9D9D9;}
	.st1{fill:#FFFFFF;}
</style>
<circle class="st0" cx="15" cy="15" r="14.8"/>
<path class="st1" d="M25.9,25.2c-2.6-2-6.9-1.7-7.7-3.9v-2.1c0.5-0.2,1.9-1.9,2-3.1c0.4,0,1-0.4,1.2-1.7c0.1-0.7-0.3-1.1-0.5-1.3
	c0,0,0.6-1.1,0.6-2.3c0-2.6-1-4.8-3.2-4.8c0,0-0.8-1.6-3.2-1.6c-4.6,0-6.5,2.9-6.5,6.4c0,1.2,0.6,2.3,0.6,2.3
	c-0.2,0.1-0.6,0.5-0.5,1.3c0.2,1.4,0.8,1.7,1.2,1.7c0.1,1.3,1.5,2.9,2,3.1v2.1c-0.7,2.2-5,1.9-7.7,3.9c2.7,2.8,6.6,4.6,10.9,4.6
	S23.2,28,25.9,25.2z"/>
</svg>
